<svg xmlns="http://www.w3.org/2000/svg" xmlns:xlink="http://www.w3.org/1999/xlink" width="500" zoomAndPan="magnify" viewBox="0 0 375 374.999991" height="500" preserveAspectRatio="xMidYMid meet" version="1.0"><defs><clipPath id="42ac207205"><path d="M 14.949219 14.949219 L 359.949219 14.949219 L 359.949219 359.949219 L 14.949219 359.949219 Z M 14.949219 14.949219 " clip-rule="nonzero"/></clipPath></defs><g clip-path="url(#42ac207205)"><path fill="#ffffff" d="M 187.496094 360.042969 C 92.351562 360.042969 14.949219 282.640625 14.949219 187.496094 C 14.949219 92.351562 92.351562 14.949219 187.496094 14.949219 C 282.640625 14.949219 360.042969 92.351562 360.042969 187.496094 C 360.042969 282.640625 282.640625 360.042969 187.496094 360.042969 Z M 187.496094 29.328125 C 100.289062 29.328125 29.328125 100.289062 29.328125 187.496094 C 29.328125 274.703125 100.289062 345.664062 187.496094 345.664062 C 274.703125 345.664062 345.664062 274.703125 345.664062 187.496094 C 345.664062 100.289062 274.703125 29.328125 187.496094 29.328125 Z M 187.496094 29.328125 " fill-opacity="1" fill-rule="nonzero"/></g><path fill="#ffffff" d="M 237.390625 288.191406 C 222.78125 288.191406 207.757812 284.296875 195.75 280.542969 C 172.140625 273.164062 150.328125 259.953125 132.683594 242.308594 C 108.957031 218.582031 92.769531 186.890625 88.28125 155.375 C 86.269531 141.226562 85.089844 123.121094 93.945312 108.683594 C 102.230469 95.210938 117.199219 86.84375 133.027344 86.84375 C 135.789062 86.84375 138.464844 87.144531 141.039062 87.578125 C 141.167969 87.605469 141.3125 87.621094 141.441406 87.664062 C 150.355469 89.316406 157.414062 96.953125 158.667969 106.3125 L 164.675781 151.246094 C 165.941406 160.738281 160.910156 170.125 152.410156 174.082031 C 151.476562 174.511719 150.527344 174.929688 149.550781 175.304688 C 154.570312 186.289062 161.457031 196.195312 170.113281 204.851562 C 178.769531 213.507812 188.675781 220.410156 199.675781 225.429688 C 200.035156 224.464844 200.453125 223.5 200.867188 222.566406 C 204.835938 214.070312 214.242188 209.007812 223.730469 210.316406 L 268.664062 216.324219 C 278.097656 217.578125 285.789062 224.765625 287.371094 233.796875 C 287.847656 236.484375 288.148438 239.175781 288.148438 241.949219 C 288.148438 256.890625 280.859375 270.921875 268.636719 279.492188 C 259.503906 285.90625 248.578125 288.191406 237.390625 288.191406 Z M 133.027344 101.222656 C 122.171875 101.222656 111.878906 106.960938 106.199219 116.207031 C 99.742188 126.730469 100.835938 141.585938 102.515625 153.347656 C 106.570312 181.832031 121.265625 210.558594 142.851562 232.128906 C 158.851562 248.132812 178.625 260.125 200.035156 266.796875 C 228.761719 275.753906 248.507812 276.070312 260.382812 267.714844 C 268.636719 261.9375 273.769531 252.042969 273.769531 241.949219 C 273.769531 239.980469 273.523438 238.109375 273.222656 236.3125 C 272.707031 233.320312 270.058594 230.992188 266.78125 230.5625 L 221.847656 224.535156 C 218.570312 224.175781 215.261719 225.757812 213.953125 228.605469 C 212.832031 231.007812 212.027344 233.625 211.539062 236.371094 C 211.164062 238.46875 209.882812 240.28125 208.042969 241.359375 C 206.203125 242.410156 203.972656 242.609375 201.988281 241.878906 C 186.117188 236.039062 171.996094 226.996094 160.003906 215.003906 C 148.011719 203.027344 138.96875 188.890625 133.128906 173.003906 C 132.394531 171.003906 132.582031 168.789062 133.648438 166.933594 C 134.710938 165.09375 136.539062 163.8125 138.636719 163.453125 C 141.367188 162.980469 143.984375 162.160156 146.386719 161.039062 C 149.234375 159.714844 150.917969 156.480469 150.46875 153.144531 L 144.417969 108.210938 C 143.984375 104.917969 141.640625 102.273438 138.738281 101.785156 C 138.25 101.683594 137.757812 101.554688 137.300781 101.367188 C 136.867188 101.480469 134.984375 101.222656 133.027344 101.222656 Z M 133.027344 101.222656 " fill-opacity="1" fill-rule="nonzero"/></svg>